<svg width="20" height="20" viewBox="0 0 20 20" fill="none" xmlns="http://www.w3.org/2000/svg">
<path d="M11.0525 15.2297H8.49921L7.55286 16.176C7.49743 16.2315 7.45968 16.3021 7.44438 16.379C7.42909 16.4559 7.43694 16.5356 7.46694 16.608C7.49694 16.6804 7.54775 16.7423 7.61294 16.7859C7.67812 16.8295 7.75476 16.8527 7.83316 16.8527H11.7186C11.797 16.8527 11.8736 16.8295 11.9388 16.7859C12.004 16.7423 12.0548 16.6804 12.0848 16.608C12.1148 16.5356 12.1227 16.4559 12.1074 16.379C12.0921 16.3021 12.0543 16.2315 11.9989 16.176L11.0525 15.2297Z" fill="url(#paint0_linear_286_20562)"/>
<path d="M18.0691 7.80449H17.5658V11.3453H18.0691C18.1708 11.3453 18.2683 11.3049 18.3401 11.233C18.412 11.1612 18.4524 11.0637 18.4524 10.9621V8.1877C18.4524 8.08607 18.412 7.9886 18.3401 7.91673C18.2683 7.84486 18.1708 7.80449 18.0691 7.80449Z" fill="url(#paint1_linear_286_20562)"/>
<path d="M2.43418 7.80449H1.93083C1.82919 7.80449 1.73172 7.84486 1.65985 7.91673C1.58799 7.98859 1.54761 8.08607 1.54761 8.1877V10.9621C1.54761 11.0637 1.58799 11.1612 1.65985 11.233C1.73172 11.3049 1.82919 11.3453 1.93083 11.3453H2.43418V7.80449Z" fill="url(#paint2_linear_286_20562)"/>
<path d="M11.9435 8.27318C11.7535 8.27318 11.5712 8.34869 11.4367 8.48311C11.3023 8.61752 11.2268 8.79983 11.2268 8.98992V9.50383C11.2268 9.69393 11.3023 9.87624 11.4367 10.0107C11.5712 10.1451 11.7535 10.2206 11.9436 10.2206C12.1337 10.2206 12.316 10.1451 12.4504 10.0107C12.5848 9.87624 12.6603 9.69393 12.6603 9.50383V8.98992C12.6603 8.89579 12.6418 8.80258 12.6058 8.71562C12.5698 8.62866 12.517 8.54964 12.4504 8.48309C12.3838 8.41653 12.3048 8.36374 12.2179 8.32772C12.1309 8.2917 12.0377 8.27317 11.9435 8.27318Z" fill="url(#paint3_linear_286_20562)"/>
<path d="M8.20527 8.27318C8.01517 8.27318 7.83287 8.34869 7.69845 8.48311C7.56404 8.61752 7.48853 8.79983 7.48853 8.98992V9.50383C7.48853 9.69393 7.56404 9.87624 7.69846 10.0107C7.83288 10.1451 8.0152 10.2206 8.2053 10.2206C8.3954 10.2206 8.57771 10.1451 8.71213 10.0107C8.84655 9.87624 8.92207 9.69393 8.92207 9.50383V8.98992C8.92207 8.89579 8.90353 8.80258 8.8675 8.71562C8.83148 8.62866 8.77868 8.54964 8.71212 8.48309C8.64556 8.41653 8.56654 8.36374 8.47957 8.32772C8.3926 8.2917 8.29939 8.27317 8.20527 8.27318Z" fill="url(#paint4_linear_286_20562)"/>
<path d="M14.355 4.20724H5.64497C4.87582 4.20811 4.13843 4.51403 3.59456 5.0579C3.05069 5.60177 2.74476 6.33916 2.7439 7.10831V12.0188C2.74476 12.788 3.05068 13.5254 3.59455 14.0692C4.13842 14.6131 4.87582 14.919 5.64497 14.9199H14.355C15.1241 14.9191 15.8615 14.6131 16.4054 14.0692C16.9493 13.5254 17.2552 12.788 17.2561 12.0188V7.10832C17.2552 6.33917 16.9493 5.60177 16.4054 5.0579C15.8615 4.51403 15.1241 4.2081 14.355 4.20724ZM14.5986 11.9895C14.5986 12.1281 14.5435 12.261 14.4455 12.359C14.3475 12.457 14.2146 12.5121 14.076 12.5121H9.82757C9.18476 12.5121 8.55274 12.6773 7.99215 12.9918L6.56687 13.7916V12.5121H5.92396C5.78536 12.5121 5.65245 12.457 5.55445 12.359C5.45645 12.261 5.40139 12.1281 5.40139 11.9895V6.7839C5.40139 6.64531 5.45645 6.51239 5.55445 6.41439C5.65245 6.31639 5.78536 6.26133 5.92396 6.26133H14.076C14.2146 6.26133 14.3475 6.31639 14.4455 6.41439C14.5435 6.51239 14.5986 6.64531 14.5986 6.7839V11.9895Z" fill="url(#paint5_linear_286_20562)"/>
<defs>
<linearGradient id="paint0_linear_286_20562" x1="9.77587" y1="15.2297" x2="9.77587" y2="16.8527" gradientUnits="userSpaceOnUse">
<stop stop-color="#3370FF"/>
<stop offset="1" stop-color="#7F3BF5"/>
</linearGradient>
<linearGradient id="paint1_linear_286_20562" x1="18.0091" y1="7.80449" x2="18.0091" y2="11.3453" gradientUnits="userSpaceOnUse">
<stop stop-color="#3370FF"/>
<stop offset="1" stop-color="#7F3BF5"/>
</linearGradient>
<linearGradient id="paint2_linear_286_20562" x1="1.99092" y1="7.80449" x2="1.99092" y2="11.3453" gradientUnits="userSpaceOnUse">
<stop stop-color="#3370FF"/>
<stop offset="1" stop-color="#7F3BF5"/>
</linearGradient>
<linearGradient id="paint3_linear_286_20562" x1="11.9435" y1="8.27318" x2="11.9435" y2="10.2206" gradientUnits="userSpaceOnUse">
<stop stop-color="#3370FF"/>
<stop offset="1" stop-color="#7F3BF5"/>
</linearGradient>
<linearGradient id="paint4_linear_286_20562" x1="8.20527" y1="8.27318" x2="8.20527" y2="10.2206" gradientUnits="userSpaceOnUse">
<stop stop-color="#3370FF"/>
<stop offset="1" stop-color="#7F3BF5"/>
</linearGradient>
<linearGradient id="paint5_linear_286_20562" x1="9.99999" y1="4.20724" x2="9.99999" y2="14.9199" gradientUnits="userSpaceOnUse">
<stop stop-color="#3370FF"/>
<stop offset="1" stop-color="#7F3BF5"/>
</linearGradient>
</defs>
</svg>
